<svg xmlns="http://www.w3.org/2000/svg" xmlns:xlink="http://www.w3.org/1999/xlink" viewBox="0 0 500 500"><defs><clipPath id="freepik--clip-path--inject-64"><path d="M309.89,254.13s1.89,8.74,3.3,14.4,5.2,18.89,7.09,17.94,10.15-20.54,10.39-25.49S314.85,243,309.89,254.13Z" style="fill:#FFC100;stroke:#263238;stroke-linecap:round;stroke-linejoin:round"></path></clipPath><clipPath id="freepik--clip-path-2--inject-64"><path d="M303.52,218.23s-3.22,5.61-2.73,9.93,1.07,12.93,3.42,19.33,9.88,13.19,15.51,18.66,10.69,1.94,12.49-.66,4.49-12.13,5.82-19.44-1.39-25-3.88-29.49S315.71,205.09,303.52,218.23Z" style="fill:#fff;stroke:#263238;stroke-linecap:round;stroke-linejoin:round"></path></clipPath><clipPath id="freepik--clip-path-3--inject-64"><path d="M259.83,347.26S275.08,339,275.08,335s-11.5-9.25-14.5-9-4.25,1.25-6.5,5-20.5,20.75-20.5,20.75-12-8.5-15.5-8.5-11.5,9.25-12,13,16.5,5.5,23.25,5.5C237.64,361.76,259.83,347.26,259.83,347.26Z" style="fill:#fff;stroke:#263238;stroke-linecap:round;stroke-linejoin:round"></path></clipPath><clipPath id="freepik--clip-path-4--inject-64"><path d="M375.59,342.78a7.18,7.18,0,0,0,1.36-13,22,22,0,0,0-5.62-2.23,31.62,31.62,0,0,0-18,1c-2.5,1-58.62,18.18-62.65,18.75s-30.47-8.33-34.5-8.62c-5.33-.38-11.49,13.7-13.22,17.46a4.31,4.31,0,0,0-.53,1.94,1.56,1.56,0,0,0,1.12,1.51c.77.13,1.43-.5,1.91-1.11,3.56-4.43,5.51-10.21,10-13.7l-6.22,12a5.18,5.18,0,0,0-.72,2.06,1.77,1.77,0,0,0,1,1.79c1,.36,2-.51,2.55-1.37a56.39,56.39,0,0,0,3.39-6.5,11.51,11.51,0,0,1,4.85-5.34,67,67,0,0,0-5.92,13.29,1.55,1.55,0,0,0,.75,1.9c1,.43,1.7-.52,2.17-1.33L264,349.58c-1.77,4-3.36,8.12-4.78,12.27a1.5,1.5,0,0,0-.11.88,1,1,0,0,0,.61.63,2.13,2.13,0,0,0,2.22-.51,6,6,0,0,0,1.29-2c1.2-2.63,2.05-5.44,3.29-8,3.45.74,6.33,4,10.1,4.54s10.63-1.15,10.63-1.15,68.6-9.42,77.6-11.17A109.19,109.19,0,0,0,375.59,342.78Z" style="fill:#fff;stroke:#263238;stroke-linecap:round;stroke-linejoin:round"></path></clipPath></defs><g id="freepik--background-simple--inject-64"><path d="M415,369.09c4,0,12.81-28,13.82-30.89a202.68,202.68,0,0,0,10.85-80.44c-2.46-33.63-7-70.22-30.65-96.21-47.89-52.74-137-46.1-182.28,5.92-13.37,15.35-27.43,31.13-45.35,41.28-20.45,11.58-44.52,10-66.47,17.18-33.35,10.9-59.25,48.88-58.37,84.2C57.26,338.74,79,367.67,109,369.76,137.66,371.76,414.88,369.09,415,369.09Z" style="fill:#FFC100"></path><path d="M415,369.09c4,0,12.81-28,13.82-30.89a202.68,202.68,0,0,0,10.85-80.44c-2.46-33.63-7-70.22-30.65-96.21-47.89-52.74-137-46.1-182.28,5.92-13.37,15.35-27.43,31.13-45.35,41.28-20.45,11.58-44.52,10-66.47,17.18-33.35,10.9-59.25,48.88-58.37,84.2C57.26,338.74,79,367.67,109,369.76,137.66,371.76,414.88,369.09,415,369.09Z" style="fill:#fff;opacity:0.8"></path><path d="M313.22,125.46q-6.21.45-12.36,1.49V370l12.36-.08Z" style="fill:#FFC100"></path><path d="M368,133.42a114.34,114.34,0,0,0-12.35-4.07V369.6l12.35-.1Z" style="fill:#FFC100"></path><path d="M422.76,181.53a93.3,93.3,0,0,0-12.35-18.4v206l4.59-.05c1.94,0,5-6.57,7.76-13.66Z" style="fill:#FFC100"></path><path d="M328.25,369.81l12.35-.09V126.3q-6.14-.85-12.35-1.1Z" style="fill:#FFC100"></path><path d="M246.09,370.32l12.35-.07V141.86a123.21,123.21,0,0,0-12.35,7.92Z" style="fill:#FFC100"></path><path d="M285.83,130.4c-4.18,1.22-8.31,2.63-12.35,4.26V370.17l12.35-.07Z" style="fill:#FFC100"></path><path d="M218.7,176.58V370.43l12.35-.05V162.79q-2.2,2.28-4.31,4.68C224.1,170.51,221.42,173.56,218.7,176.58Z" style="fill:#FFC100"></path><path d="M148.89,219c-4.1.71-8.23,1.35-12.35,2V370.37l12.35.07Z" style="fill:#FFC100"></path><path d="M109.16,228.12V369.77c2.47.17,6.69.3,12.35.4V224c-2.22.56-4.42,1.18-6.59,1.89C113,226.57,111.05,227.31,109.16,228.12Z" style="fill:#FFC100"></path><path d="M395.38,148.93A108.7,108.7,0,0,0,383,140.64V369.38l12.35-.11Z" style="fill:#FFC100"></path><path d="M176.28,211.34a82.18,82.18,0,0,1-12.35,4.4V370.49h12.35Z" style="fill:#FFC100"></path><path d="M437.8,302a196.3,196.3,0,0,0,1.87-44.19c-.49-6.73-1.07-13.58-1.87-20.44Z" style="fill:#FFC100"></path><path d="M191.32,370.49l12.35,0V192a137.3,137.3,0,0,1-12.35,10.28Z" style="fill:#FFC100"></path><g style="opacity:0.8"><path d="M313.22,125.46q-6.21.45-12.36,1.49V370l12.36-.08Z" style="fill:#fff;opacity:0.8"></path><path d="M368,133.42a114.34,114.34,0,0,0-12.35-4.07V369.6l12.35-.1Z" style="fill:#fff;opacity:0.8"></path><path d="M422.76,181.53a93.3,93.3,0,0,0-12.35-18.4v206l4.59-.05c1.94,0,5-6.57,7.76-13.66Z" style="fill:#fff;opacity:0.8"></path><path d="M328.25,369.81l12.35-.09V126.3q-6.14-.85-12.35-1.1Z" style="fill:#fff;opacity:0.8"></path><path d="M246.09,370.32l12.35-.07V141.86a123.21,123.21,0,0,0-12.35,7.92Z" style="fill:#fff;opacity:0.8"></path><path d="M285.83,130.4c-4.18,1.22-8.31,2.63-12.35,4.26V370.17l12.35-.07Z" style="fill:#fff;opacity:0.8"></path><path d="M218.7,176.58V370.43l12.35-.05V162.79q-2.2,2.28-4.31,4.68C224.1,170.51,221.42,173.56,218.7,176.58Z" style="fill:#fff;opacity:0.8"></path><path d="M148.89,219c-4.1.71-8.23,1.35-12.35,2V370.37l12.35.07Z" style="fill:#fff;opacity:0.8"></path><path d="M109.16,228.12V369.77c2.47.17,6.69.3,12.35.4V224c-2.22.56-4.42,1.18-6.59,1.89C113,226.57,111.05,227.31,109.16,228.12Z" style="fill:#fff;opacity:0.8"></path><path d="M395.38,148.93A108.7,108.7,0,0,0,383,140.64V369.38l12.35-.11Z" style="fill:#fff;opacity:0.8"></path><path d="M176.28,211.34a82.18,82.18,0,0,1-12.35,4.4V370.49h12.35Z" style="fill:#fff;opacity:0.8"></path><path d="M437.8,302a196.3,196.3,0,0,0,1.87-44.19c-.49-6.73-1.07-13.58-1.87-20.44Z" style="fill:#fff;opacity:0.8"></path><path d="M191.32,370.49l12.35,0V192a137.3,137.3,0,0,1-12.35,10.28Z" style="fill:#fff;opacity:0.8"></path></g></g><g id="freepik--Plants--inject-64"><path d="M242.89,293.7s15.88-21.76,8.13-26.86c-8.06-5.32-11.85,10.78-13.55,18.69-3.64,16.87-2.61,20.45-.17,16.74Z" style="fill:#FFC100"></path><path d="M248.87,307.07s22.09-15.41,16.42-22.76c-5.9-7.65-14.71,6.35-18.89,13.27-8.92,14.78-9.11,18.5-5.6,15.79Z" style="fill:#FFC100"></path><path d="M249.32,325s19.12-8.59,15.85-15c-3.4-6.7-12.17,2.72-16.37,7.41-9,10-9.64,12.83-6.56,11.26Z" style="fill:#FFC100"></path><path d="M250.46,342.9s19.12-8.58,15.85-15c-3.41-6.7-12.17,2.72-16.37,7.41-9,10-9.65,12.83-6.57,11.26Z" style="fill:#FFC100"></path><path d="M228,302.79s-21-16.87-26.46-9.36c-5.68,7.81,10.23,12.33,18,14.4,16.69,4.41,20.32,3.54,16.72.93Z" style="fill:#FFC100"></path><path d="M228.67,316.87s-23.94-12.35-27.8-3.91c-4,8.78,12.48,10.05,20.56,10.52,17.23,1,20.61-.56,16.57-2.41Z" style="fill:#FFC100"></path><path d="M231.56,332.67S211,322.77,208,330c-3.19,7.52,10.78,8.21,17.62,8.43,14.6.44,17.42-1,14-2.42Z" style="fill:#FFC100"></path><path d="M232.54,345.43s-19.36-12-23.18-5.16c-4,7.14,9.85,9.31,16.63,10.25,14.47,2,17.43.9,14.14-.93Z" style="fill:#FFC100"></path><path d="M230.73,281.42s-3.64-31.59-15.56-28.36c-12.4,3.36-2,19.35,3.22,27.06,11.19,16.44,15.3,18.26,14.42,13.12Z" style="fill:#FFC100"></path><path d="M242.89,293.7s15.88-21.76,8.13-26.86c-8.06-5.32-11.85,10.78-13.55,18.69-3.64,16.87-2.61,20.45-.17,16.74Z" style="fill:#fff;opacity:0.5"></path><path d="M248.87,307.07s22.09-15.41,16.42-22.76c-5.9-7.65-14.71,6.35-18.89,13.27-8.92,14.78-9.11,18.5-5.6,15.79Z" style="fill:#fff;opacity:0.5"></path><path d="M249.32,325s19.12-8.59,15.85-15c-3.4-6.7-12.17,2.72-16.37,7.41-9,10-9.64,12.83-6.56,11.26Z" style="fill:#fff;opacity:0.5"></path><path d="M250.46,342.9s19.12-8.58,15.85-15c-3.41-6.7-12.17,2.72-16.37,7.41-9,10-9.65,12.83-6.57,11.26Z" style="fill:#fff;opacity:0.5"></path><path d="M228,302.79s-21-16.87-26.46-9.36c-5.68,7.81,10.23,12.33,18,14.4,16.69,4.41,20.32,3.54,16.72.93Z" style="fill:#fff;opacity:0.5"></path><path d="M228.67,316.87s-23.94-12.35-27.8-3.91c-4,8.78,12.48,10.05,20.56,10.52,17.23,1,20.61-.56,16.57-2.41Z" style="fill:#fff;opacity:0.5"></path><path d="M231.56,332.67S211,322.77,208,330c-3.19,7.52,10.78,8.21,17.62,8.43,14.6.44,17.42-1,14-2.42Z" style="fill:#fff;opacity:0.5"></path><path d="M232.54,345.43s-19.36-12-23.18-5.16c-4,7.14,9.85,9.31,16.63,10.25,14.47,2,17.43.9,14.14-.93Z" style="fill:#fff;opacity:0.5"></path><path d="M230.73,281.42s-3.64-31.59-15.56-28.36c-12.4,3.36-2,19.35,3.22,27.06,11.19,16.44,15.3,18.26,14.42,13.12Z" style="fill:#fff;opacity:0.5"></path><path d="M217.6,264.54s18.16,34,21,49.85c3.24,18.15,3.77,38.41,1.53,54.3" style="fill:none;stroke:#263238;stroke-linecap:round;stroke-linejoin:round;stroke-width:0.75px"></path><line x1="235.71" y1="303.88" x2="244.61" y2="276.63" style="fill:none;stroke:#263238;stroke-linecap:round;stroke-linejoin:round;stroke-width:0.75px"></line><line x1="238.58" y1="314.39" x2="255.33" y2="293.33" style="fill:none;stroke:#263238;stroke-linecap:round;stroke-linejoin:round;stroke-width:0.75px"></line><line x1="237.51" y1="310.56" x2="213.26" y2="300.37" style="fill:none;stroke:#263238;stroke-linecap:round;stroke-linejoin:round;stroke-width:0.75px"></line><line x1="240.68" y1="328.65" x2="258.91" y2="314.67" style="fill:none;stroke:#263238;stroke-linecap:round;stroke-linejoin:round;stroke-width:0.75px"></line><line x1="239.71" y1="322.65" x2="220.66" y2="318.69" style="fill:none;stroke:#263238;stroke-linecap:round;stroke-linejoin:round;stroke-width:0.75px"></line><line x1="240.63" y1="337.24" x2="225.88" y2="334.9" style="fill:none;stroke:#263238;stroke-linecap:round;stroke-linejoin:round;stroke-width:0.75px"></line><line x1="241.87" y1="346.68" x2="251.79" y2="337.8" style="fill:none;stroke:#263238;stroke-linecap:round;stroke-linejoin:round;stroke-width:0.75px"></line><line x1="241.67" y1="350.68" x2="224.72" y2="346.42" style="fill:none;stroke:#263238;stroke-linecap:round;stroke-linejoin:round;stroke-width:0.75px"></line><path d="M274.86,331.42s-.94-17.73,5.18-17.76c6.37,0,2.66,10.22.75,15.2-4.07,10.63-5.93,12.24-5.94,9.31Z" style="fill:#FFC100"></path><path d="M266.74,336.65s-6.65-16.47-.87-18.48c6-2.1,5.83,8.8,5.65,14.13-.4,11.37-1.64,13.5-2.6,10.73Z" style="fill:#FFC100"></path><path d="M260.05,346.36s-7.46-11.63-3.34-14c4.29-2.47,5.74,5.89,6.37,10,1.34,8.75.7,10.55-.43,8.58Z" style="fill:#FFC100"></path><path d="M253,355.86s-7.46-11.63-3.34-14c4.3-2.48,5.74,5.88,6.37,10,1.34,8.75.71,10.55-.43,8.57Z" style="fill:#FFC100"></path><path d="M279.78,341.79s17.67-1.75,18,4.36c.32,6.36-10.09,3.13-15.15,1.45-10.81-3.58-12.5-5.36-9.57-5.51Z" style="fill:#FFC100"></path><path d="M274.36,349.34s17.67,1.8,16.75,7.85c-.94,6.29-10.5,1.06-15.13-1.59-9.88-5.66-11.18-7.74-8.28-7.3Z" style="fill:#FFC100"></path><path d="M267.07,357s14.9,1.93,14,7c-.95,5.3-8.91.65-12.77-1.69-8.22-5-9.27-6.81-6.83-6.37Z" style="fill:#FFC100"></path><path d="M261.94,363.71s15,.34,14.65,5.5c-.38,5.37-8.79,1.59-12.87-.33-8.71-4.11-10-5.78-7.48-5.61Z" style="fill:#FFC100"></path><path d="M286,329s13.39-16.13,18.81-10c5.63,6.32-5.85,11.41-11.52,13.78-12.11,5.05-15,4.57-12.7,2.05Z" style="fill:#FFC100"></path><path d="M274.86,331.42s-.94-17.73,5.18-17.76c6.37,0,2.66,10.22.75,15.2-4.07,10.63-5.93,12.24-5.94,9.31Z" style="fill:#fff;opacity:0.5"></path><path d="M266.74,336.65s-6.65-16.47-.87-18.48c6-2.1,5.83,8.8,5.65,14.13-.4,11.37-1.64,13.5-2.6,10.73Z" style="fill:#fff;opacity:0.5"></path><path d="M260.05,346.36s-7.46-11.63-3.34-14c4.29-2.47,5.74,5.89,6.37,10,1.34,8.75.7,10.55-.43,8.58Z" style="fill:#fff;opacity:0.5"></path><path d="M253,355.86s-7.46-11.63-3.34-14c4.3-2.48,5.74,5.88,6.37,10,1.34,8.75.71,10.55-.43,8.57Z" style="fill:#fff;opacity:0.5"></path><path d="M279.78,341.79s17.67-1.75,18,4.36c.32,6.36-10.09,3.13-15.15,1.45-10.81-3.58-12.5-5.36-9.57-5.51Z" style="fill:#fff;opacity:0.5"></path><path d="M274.36,349.34s17.67,1.8,16.75,7.85c-.94,6.29-10.5,1.06-15.13-1.59-9.88-5.66-11.18-7.74-8.28-7.3Z" style="fill:#fff;opacity:0.5"></path><path d="M267.07,357s14.9,1.93,14,7c-.95,5.3-8.91.65-12.77-1.69-8.22-5-9.27-6.81-6.83-6.37Z" style="fill:#fff;opacity:0.5"></path><path d="M261.94,363.71s15,.34,14.65,5.5c-.38,5.37-8.79,1.59-12.87-.33-8.71-4.11-10-5.78-7.48-5.61Z" style="fill:#fff;opacity:0.5"></path><path d="M286,329s13.39-16.13,18.81-10c5.63,6.32-5.85,11.41-11.52,13.78-12.11,5.05-15,4.57-12.7,2.05Z" style="fill:#fff;opacity:0.5"></path><path d="M299.32,324.43s-22.29,12.26-29.54,20a120.31,120.31,0,0,0-20.4,29.43" style="fill:none;stroke:#263238;stroke-linecap:round;stroke-linejoin:round;stroke-width:0.75px"></path><line x1="275.15" y1="339.63" x2="280.06" y2="321.38" style="fill:none;stroke:#263238;stroke-linecap:round;stroke-linejoin:round;stroke-width:0.75px"></line><line x1="269.78" y1="344.39" x2="268.12" y2="326.74" style="fill:none;stroke:#263238;stroke-linecap:round;stroke-linejoin:round;stroke-width:0.75px"></line><line x1="271.75" y1="342.67" x2="288.81" y2="345.78" style="fill:none;stroke:#263238;stroke-linecap:round;stroke-linejoin:round;stroke-width:0.75px"></line><line x1="263.49" y1="351.51" x2="258.45" y2="337.23" style="fill:none;stroke:#263238;stroke-linecap:round;stroke-linejoin:round;stroke-width:0.75px"></line><line x1="266.18" y1="348.55" x2="278.12" y2="353.22" style="fill:none;stroke:#263238;stroke-linecap:round;stroke-linejoin:round;stroke-width:0.75px"></line><line x1="260.42" y1="356.28" x2="269.41" y2="360.3" style="fill:none;stroke:#263238;stroke-linecap:round;stroke-linejoin:round;stroke-width:0.75px"></line><line x1="256.33" y1="361.04" x2="254.06" y2="352.56" style="fill:none;stroke:#263238;stroke-linecap:round;stroke-linejoin:round;stroke-width:0.75px"></line><line x1="255" y1="363.32" x2="265.89" y2="367.07" style="fill:none;stroke:#263238;stroke-linecap:round;stroke-linejoin:round;stroke-width:0.75px"></line><polyline points="108.92 160.59 105.58 151.46 107.36 153.46 107.36 150.34 111.14 156.13 107.8 135.42 112.26 146.78 112.7 136.76 113.37 140.1 114.26 128.74 115.82 146.11 118.05 140.1 117.6 147.89 123.61 130.08 120.72 152.35 124.95 149.23 122.5 153.24 125.62 151.01 122.06 161.25 109.14 161.48" style="fill:#FFC100"></polyline><polygon points="123.2 183.07 109.28 183.07 105.53 158.95 126.95 158.95 123.2 183.07" style="fill:#263238;stroke:#263238;stroke-linecap:round;stroke-linejoin:round"></polygon></g><g id="freepik--Clock--inject-64"><circle cx="404.48" cy="184.8" r="37.33" transform="translate(154.04 552.27) rotate(-80.28)" style="fill:#263238"></circle><circle cx="404.48" cy="184.8" r="30" style="fill:#fff;stroke:#263238;stroke-linecap:round;stroke-linejoin:round"></circle><path d="M407.15,184.8a2.67,2.67,0,1,1-2.67-2.67A2.68,2.68,0,0,1,407.15,184.8Z" style="fill:#263238"></path><polyline points="395.54 198.34 404.48 184.8 419.58 197.29" style="fill:none;stroke:#263238;stroke-linecap:round;stroke-linejoin:round"></polyline></g><g id="freepik--filing-cabinet--inject-64"><rect x="68.69" y="182.91" width="108.49" height="186.95" style="fill:#263238;stroke:#263238;stroke-linecap:round;stroke-linejoin:round"></rect><rect x="106.9" y="182.91" width="70.28" height="186.95" style="fill:#fff;stroke:#263238;stroke-linecap:round;stroke-linejoin:round"></rect><rect x="110.99" y="189.05" width="61.41" height="45.03" style="fill:#fff;stroke:#263238;stroke-linecap:round;stroke-linejoin:round"></rect><rect x="129.41" y="207.47" width="24.56" height="8.19" style="fill:#263238"></rect><rect x="110.99" y="241.59" width="61.41" height="45.03" style="fill:#fff;stroke:#263238;stroke-linecap:round;stroke-linejoin:round"></rect><rect x="129.41" y="260.01" width="24.56" height="8.19" style="fill:#263238"></rect><rect x="110.99" y="294.13" width="61.41" height="45.03" style="fill:#fff;stroke:#263238;stroke-linecap:round;stroke-linejoin:round"></rect><rect x="129.41" y="312.55" width="24.56" height="8.19" style="fill:#263238"></rect></g><g id="freepik--Character--inject-64"><path d="M298.83,236.82s-.71-5.7-6.89-15.43-.23-12.82,6.18-20.65,16.37-6.17,21.83-5,14.72,3.56,16.85,10.92,2.85,23.5,3.09,24.93-2.37,1.89-3.56,1.66-3.8-13.53-7.12-16.38-18-.95-22.08,4-2.84,12.11-2.61,15.2-1.18,4-2.61,4.27S298.83,236.82,298.83,236.82Z" style="fill:#263238;stroke:#263238;stroke-linecap:round;stroke-linejoin:round"></path><path d="M319.58,253.26s-22,5-28.75,7-13,3.5-11.75,6.5-6.75,28-6.75,28L261.08,322l16,12.5,12.75-24.75L301.33,366h77.25s-2.25-93.75-6-98.5-33.5-15-40.75-15.75A25.85,25.85,0,0,0,319.58,253.26Z" style="fill:#FFC100;stroke:#263238;stroke-linecap:round;stroke-linejoin:round"></path><path d="M356,307.16a170.06,170.06,0,0,1-8.46-22" style="fill:none;stroke:#263238;stroke-linecap:round;stroke-linejoin:round"></path><path d="M348.78,305.12A16.44,16.44,0,0,0,358.92,311" style="fill:none;stroke:#263238;stroke-linecap:round;stroke-linejoin:round"></path><path d="M345.8,300a15.82,15.82,0,0,0,1.46,3" style="fill:none;stroke:#263238;stroke-linecap:round;stroke-linejoin:round"></path><polyline points="285.55 286.48 289.83 309.76 282.02 286.47" style="fill:none;stroke:#263238;stroke-linecap:round;stroke-linejoin:round"></polyline><line x1="284.05" y1="278.34" x2="284.95" y2="283.24" style="fill:none;stroke:#263238;stroke-linecap:round;stroke-linejoin:round"></line><path d="M302.15,239.43s-2.37-5.7-4.51-5.7-1.66,3.09-.71,6.65,3.8,7.59,5.93,7.59H305Z" style="fill:#fff;stroke:#263238;stroke-linecap:round;stroke-linejoin:round"></path><path d="M336.57,229.93s2.37-6.88,3.56-3.32a23.42,23.42,0,0,1,.24,12.11c-.95,3.79-1.19,5.22-2.14,5S336.57,229.93,336.57,229.93Z" style="fill:#fff;stroke:#263238;stroke-linecap:round;stroke-linejoin:round"></path><polygon points="313.67 287.65 314.45 288.51 316.26 290.49 320.28 299.22 317.92 353.76 325.71 365.8 332.55 350.69 322.4 298.99 324.53 289.54 326.65 283.17 325.24 281.99 322.87 286.71 315.79 286.48 312.49 283.88 311.07 286.95 313.67 287.65" style="fill:#263238;stroke:#263238;stroke-linecap:round;stroke-linejoin:round"></polygon><path d="M309.42,251.77s-5.67,6.85-6.14,13.46,5,26.67,5,26.67,7.32-5.43,12-5.43,15.58,9.21,15.58,9.21,7.32-23.61,3.54-37.54S319.33,240.67,309.42,251.77Z" style="fill:#fff;stroke:#263238;stroke-linecap:round;stroke-linejoin:round"></path><path d="M309.89,254.13s1.89,8.74,3.3,14.4,5.2,18.89,7.09,17.94,10.15-20.54,10.39-25.49S314.85,243,309.89,254.13Z" style="fill:#FFC100"></path><g style="clip-path:url(#freepik--clip-path--inject-64)"><path d="M309.89,254.13s1.89,8.74,3.3,14.4,5.2,18.89,7.09,17.94,10.15-20.54,10.39-25.49S314.85,243,309.89,254.13Z" style="fill:#fff;stroke:#263238;stroke-linecap:round;stroke-linejoin:round;opacity:0.5"></path></g><path d="M309.89,254.13s1.89,8.74,3.3,14.4,5.2,18.89,7.09,17.94,10.15-20.54,10.39-25.49S314.85,243,309.89,254.13Z" style="fill:none;stroke:#263238;stroke-linecap:round;stroke-linejoin:round"></path><path d="M303.52,218.23s-3.22,5.61-2.73,9.93,1.07,12.93,3.42,19.33,9.88,13.19,15.51,18.66,10.69,1.94,12.49-.66,4.49-12.13,5.82-19.44-1.39-25-3.88-29.49S315.71,205.09,303.52,218.23Z" style="fill:#fff"></path><g style="clip-path:url(#freepik--clip-path-2--inject-64)"><path d="M303.52,218.23a26.57,26.57,0,0,0-2.09,5c.6.31,6.83,3.5,9.58,3.5s-7.72,1.61-4.5,5.47,18.64.32,23.46-3.22,5.15-2.57,5.15-2.57,2.25,16.07.64,24.75-4.18,13.82-8.36,15.11-10.13-4-13.82-8a39.86,39.86,0,0,0-6.46-5.44c3.38,4.73,8.49,9.42,12.6,13.41,5.62,5.47,10.69,1.94,12.49-.66s4.49-12.13,5.82-19.44-1.39-25-3.88-29.49S315.71,205.09,303.52,218.23Z" style="fill:#FFC100"></path><path d="M303.52,218.23a26.57,26.57,0,0,0-2.09,5c.6.31,6.83,3.5,9.58,3.5s-7.72,1.61-4.5,5.47,18.64.32,23.46-3.22,5.15-2.57,5.15-2.57,2.25,16.07.64,24.75-4.18,13.82-8.36,15.11-10.13-4-13.82-8a39.86,39.86,0,0,0-6.46-5.44c3.38,4.73,8.49,9.42,12.6,13.41,5.62,5.47,10.69,1.94,12.49-.66s4.49-12.13,5.82-19.44-1.39-25-3.88-29.49S315.71,205.09,303.52,218.23Z" style="fill:#fff;opacity:0.5"></path><path d="M315.89,242.13c.24,1.34-.11,2.53-.78,2.65s-1.41-.87-1.66-2.21.11-2.54.78-2.66S315.65,240.78,315.89,242.13Z" style="fill:#263238"></path><path d="M328.1,239.42c.24,1.34-.1,2.53-.78,2.65s-1.41-.87-1.66-2.21.11-2.54.78-2.66S327.86,238.07,328.1,239.42Z" style="fill:#263238"></path><path d="M307.63,238.54s.55-3,8.53-3" style="fill:none;stroke:#263238;stroke-linecap:round;stroke-linejoin:round"></path><path d="M323,234.41s2.48-5.78,7.43-2.47" style="fill:none;stroke:#263238;stroke-linecap:round;stroke-linejoin:round"></path><path d="M323.58,238.81s.28,4.95,2.48,7.15,1.92,3,0,4.68a4.86,4.86,0,0,1-4.4.82" style="fill:none;stroke:#263238;stroke-linecap:round;stroke-linejoin:round"></path><path d="M323,257.51s4.4-.55,6.33-2.2" style="fill:none;stroke:#263238;stroke-linecap:round;stroke-linejoin:round"></path></g><path d="M303.52,218.23s-3.22,5.61-2.73,9.93,1.07,12.93,3.42,19.33,9.88,13.19,15.51,18.66,10.69,1.94,12.49-.66,4.49-12.13,5.82-19.44-1.39-25-3.88-29.49S315.71,205.09,303.52,218.23Z" style="fill:none;stroke:#263238;stroke-linecap:round;stroke-linejoin:round"></path><path d="M295.15,218.59s9.33,3.66,13.79,3.66,2,.81-.81,3.24-3.24,5.68,7.31,5.68,19.87-11.36,23.12-21.09,4.87-8.12-.81-11-20.29,4.46-20.29,4.46" style="fill:#263238;stroke:#263238;stroke-linecap:round;stroke-linejoin:round"></path><path d="M333.53,206.48s2.54,15.23-11.84,19.46" style="fill:none;stroke:#fff;stroke-linecap:round;stroke-linejoin:round"></path><path d="M330.57,206.48s-5.94,9.41-16.49,10.58-16.5-5.08-16.5-5.08" style="fill:none;stroke:#fff;stroke-linecap:round;stroke-linejoin:round"></path><path d="M301.81,221.71s-5.92.42-8.88-3" style="fill:none;stroke:#fff;stroke-linecap:round;stroke-linejoin:round"></path><path d="M280.33,328.26s-1.5-6-10-9.25-9.5-1.75-10.75.75-5,6.25-4.25,8.75,3.75,8.5,14.75,10.75,8.75-3.25,10-4.75S282.58,333.76,280.33,328.26Z" style="fill:#fff;stroke:#263238;stroke-linecap:round;stroke-linejoin:round"></path><path d="M199.58,349.26s-11.25,3.75-10.75,6.25,11-3,11-3,1.75,3.25,5,2,.5-6.25-1.25-6S199.58,349.26,199.58,349.26Z" style="fill:#fff;stroke:#263238;stroke-linecap:round;stroke-linejoin:round"></path><path d="M259.83,347.26S275.08,339,275.08,335s-11.5-9.25-14.5-9-4.25,1.25-6.5,5-20.5,20.75-20.5,20.75-12-8.5-15.5-8.5-11.5,9.25-12,13,16.5,5.5,23.25,5.5C237.64,361.76,259.83,347.26,259.83,347.26Z" style="fill:#fff"></path><g style="clip-path:url(#freepik--clip-path-3--inject-64)"><path d="M275.08,335c0-4-11.5-9.25-14.5-9a5.91,5.91,0,0,0-4.17,1.76,15.35,15.35,0,0,1,9.73,1.91c6.15,3.69.92,8.92-3.08,11.68s-26.43,17.22-31.35,17.83-9.57-2.83-12.63-6.18-5.2-5.81-8.89-3.66l-.23.17a24.51,24.51,0,0,0-3.36,5.09,13.87,13.87,0,0,0-.46,2.18c1.08,3.38,16.77,5,23.19,5,8.31,0,30.5-14.5,30.5-14.5S275.08,339,275.08,335Z" style="fill:#FFC100"></path><path d="M275.08,335c0-4-11.5-9.25-14.5-9a5.91,5.91,0,0,0-4.17,1.76,15.35,15.35,0,0,1,9.73,1.91c6.15,3.69.92,8.92-3.08,11.68s-26.43,17.22-31.35,17.83-9.57-2.83-12.63-6.18-5.2-5.81-8.89-3.66l-.23.17a24.51,24.51,0,0,0-3.36,5.09,13.87,13.87,0,0,0-.46,2.18c1.08,3.38,16.77,5,23.19,5,8.31,0,30.5-14.5,30.5-14.5S275.08,339,275.08,335Z" style="fill:#fff;opacity:0.5"></path></g><path d="M259.83,347.26S275.08,339,275.08,335s-11.5-9.25-14.5-9-4.25,1.25-6.5,5-20.5,20.75-20.5,20.75-12-8.5-15.5-8.5-11.5,9.25-12,13,16.5,5.5,23.25,5.5C237.64,361.76,259.83,347.26,259.83,347.26Z" style="fill:none;stroke:#263238;stroke-linecap:round;stroke-linejoin:round"></path><path d="M204.08,343.76s-4.75,2.25-5.25,3.75-3.75,10.25-1.5,11.25,5.25-9.25,6.25-10.25S206.08,345.26,204.08,343.76Z" style="fill:#fff;stroke:#263238;stroke-linecap:round;stroke-linejoin:round"></path><path d="M209.08,343.51s-3-2.5-5,.25-3.5,12.5-2.5,14.5,3.5,0,4.5-2S209.08,343.51,209.08,343.51Z" style="fill:#fff;stroke:#263238;stroke-linecap:round;stroke-linejoin:round"></path><path d="M219.58,344.76s-4.75-4-7.5-4.25-3.75,1.75-4,4-3.75,12.5-2.75,13,3,.25,4.25-2a99.75,99.75,0,0,0,3.75-9.5l2,1.5" style="fill:#fff;stroke:#263238;stroke-linecap:round;stroke-linejoin:round"></path><path d="M232.58,357s1-6-.75-8.5-6-2.25-9.25-6-5.75-1.5-5,1.75,8,5.25,8,5.25-6,.5-6.5,3.5,6.17,4.34,6.17,4.34" style="fill:#fff;stroke:#263238;stroke-linecap:round;stroke-linejoin:round"></path><path d="M215.55,335.67a24.87,24.87,0,0,1,10.13,3.24" style="fill:none;stroke:#263238;stroke-linecap:round;stroke-linejoin:round"></path><path d="M219.6,334.05s5.27,1.62,7.7,3.65" style="fill:none;stroke:#263238;stroke-linecap:round;stroke-linejoin:round"></path><path d="M359.08,278.26a64.09,64.09,0,0,0-4,8.25c-1,3,1.75,40,1.75,40a20.36,20.36,0,0,1,10.25-.5c5.25,1.25,15.75,7,15.75,7s1-10.75-.75-18.75-5-40.25-7.25-43.5-1.5-5-6.25-3.25" style="fill:#FFC100;stroke:#263238;stroke-linecap:round;stroke-linejoin:round"></path><path d="M386.33,326.76s-6.75-5.75-12-7-15.25,0-16.75.5-2.5,2.25-2.75,4.75-2,4.25-.75,5.75,8.25,6.25,14,7.75,14.5,1,15.75-2.75S387.58,329.51,386.33,326.76Z" style="fill:#fff;stroke:#263238;stroke-linecap:round;stroke-linejoin:round"></path><path d="M252.45,347s-8,3.45-10.64,4.31-3.46,3.24-1.15,4,12.81-3.16,13.8-2.87,11.79,3.74,15.24,4a10,10,0,0,0,6.32-2S259.63,344.1,252.45,347Z" style="fill:#fff;stroke:#263238;stroke-linecap:round;stroke-linejoin:round"></path><path d="M375.59,342.78a7.18,7.18,0,0,0,1.36-13,22,22,0,0,0-5.62-2.23,31.62,31.62,0,0,0-18,1c-2.5,1-58.62,18.18-62.65,18.75s-30.47-8.33-34.5-8.62c-5.33-.38-11.49,13.7-13.22,17.46a4.31,4.31,0,0,0-.53,1.94,1.56,1.56,0,0,0,1.12,1.51c.77.13,1.43-.5,1.91-1.11,3.56-4.43,5.51-10.21,10-13.7l-6.22,12a5.18,5.18,0,0,0-.72,2.06,1.77,1.77,0,0,0,1,1.79c1,.36,2-.51,2.55-1.37a56.39,56.39,0,0,0,3.39-6.5,11.51,11.51,0,0,1,4.85-5.34,67,67,0,0,0-5.92,13.29,1.55,1.55,0,0,0,.75,1.9c1,.43,1.7-.52,2.17-1.33L264,349.58c-1.77,4-3.36,8.12-4.78,12.27a1.5,1.5,0,0,0-.11.88,1,1,0,0,0,.61.63,2.13,2.13,0,0,0,2.22-.51,6,6,0,0,0,1.29-2c1.2-2.63,2.05-5.44,3.29-8,3.45.74,6.33,4,10.1,4.54s10.63-1.15,10.63-1.15,68.6-9.42,77.6-11.17A109.19,109.19,0,0,0,375.59,342.78Z" style="fill:#fff"></path><g style="clip-path:url(#freepik--clip-path-4--inject-64)"><path d="M374.35,333.06c-1.54,4-42.12,13.84-59.64,16.91s-27.36,6.46-34.12,4-12.91-5.84-14.45-3.69c-1.25,1.74-3.51,8.75-4.32,12.65l.1-.08a6,6,0,0,0,1.29-2c1.2-2.63,2.05-5.44,3.29-8,3.45.74,6.33,4,10.1,4.54s10.63-1.15,10.63-1.15,68.6-9.42,77.6-11.17a109.19,109.19,0,0,0,10.76-2.23,7.18,7.18,0,0,0,1.36-13,22,22,0,0,0-5.62-2.23S375.89,329.07,374.35,333.06Z" style="fill:#FFC100"></path><path d="M374.35,333.06c-1.54,4-42.12,13.84-59.64,16.91s-27.36,6.46-34.12,4-12.91-5.84-14.45-3.69c-1.25,1.74-3.51,8.75-4.32,12.65l.1-.08a6,6,0,0,0,1.29-2c1.2-2.63,2.05-5.44,3.29-8,3.45.74,6.33,4,10.1,4.54s10.63-1.15,10.63-1.15,68.6-9.42,77.6-11.17a109.19,109.19,0,0,0,10.76-2.23,7.18,7.18,0,0,0,1.36-13,22,22,0,0,0-5.62-2.23S375.89,329.07,374.35,333.06Z" style="fill:#fff;opacity:0.5"></path></g><path d="M375.59,342.78a7.18,7.18,0,0,0,1.36-13,22,22,0,0,0-5.62-2.23,31.62,31.62,0,0,0-18,1c-2.5,1-58.62,18.18-62.65,18.75s-30.47-8.33-34.5-8.62c-5.33-.38-11.49,13.7-13.22,17.46a4.31,4.31,0,0,0-.53,1.94,1.56,1.56,0,0,0,1.12,1.51c.77.13,1.43-.5,1.91-1.11,3.56-4.43,5.51-10.21,10-13.7l-6.22,12a5.18,5.18,0,0,0-.72,2.06,1.77,1.77,0,0,0,1,1.79c1,.36,2-.51,2.55-1.37a56.39,56.39,0,0,0,3.39-6.5,11.51,11.51,0,0,1,4.85-5.34,67,67,0,0,0-5.92,13.29,1.55,1.55,0,0,0,.75,1.9c1,.43,1.7-.52,2.17-1.33L264,349.58c-1.77,4-3.36,8.12-4.78,12.27a1.5,1.5,0,0,0-.11.88,1,1,0,0,0,.61.63,2.13,2.13,0,0,0,2.22-.51,6,6,0,0,0,1.29-2c1.2-2.63,2.05-5.44,3.29-8,3.45.74,6.33,4,10.1,4.54s10.63-1.15,10.63-1.15,68.6-9.42,77.6-11.17A109.19,109.19,0,0,0,375.59,342.78Z" style="fill:none;stroke:#263238;stroke-linecap:round;stroke-linejoin:round"></path></g><g id="freepik--Device--inject-64"><rect x="148.7" y="363.38" width="44.37" height="2.07" transform="translate(341.77 728.82) rotate(180)" style="fill:#fff;stroke:#263238;stroke-linecap:round;stroke-linejoin:round"></rect><rect x="114.57" y="290.11" width="95.64" height="61.68" transform="translate(324.79 641.89) rotate(180)" style="fill:#fff;stroke:#263238;stroke-linecap:round;stroke-linejoin:round"></rect><rect x="114.57" y="290.11" width="90.42" height="61.68" transform="translate(319.57 641.89) rotate(180)" style="fill:#263238;stroke:#263238;stroke-linecap:round;stroke-linejoin:round"></rect><rect x="147.67" y="318.77" width="20.93" height="47.62" transform="translate(316.27 685.15) rotate(180)" style="fill:#fff;stroke:#263238;stroke-linecap:round;stroke-linejoin:round"></rect><rect x="145.74" y="318.77" width="20.93" height="47.62" transform="translate(312.41 685.15) rotate(180)" style="fill:#263238;stroke:#263238;stroke-linecap:round;stroke-linejoin:round"></rect><polyline points="168.06 319.33 145.25 319.33 145.25 351.93" style="fill:none;stroke:#fff;stroke-linecap:round;stroke-linejoin:round"></polyline><rect x="210.88" y="362.26" width="64.07" height="3.35" transform="translate(485.83 727.88) rotate(180)" style="fill:#fff;stroke:#263238;stroke-linecap:round;stroke-linejoin:round"></rect><rect x="178.22" y="362.26" width="80.17" height="3.35" transform="translate(436.61 727.88) rotate(180)" style="fill:#fff;stroke:#263238;stroke-linecap:round;stroke-linejoin:round"></rect><polygon points="332.56 365.65 365.21 365.65 364.7 361.03 332.56 362.81 332.56 365.65" style="fill:#fff;stroke:#263238;stroke-linecap:round;stroke-linejoin:round"></polygon><polygon points="309.67 365.89 342.32 365.89 341.81 361.27 309.67 363.05 309.67 365.89" style="fill:#fff;stroke:#263238;stroke-linecap:round;stroke-linejoin:round"></polygon><path d="M394.07,362.81s-7.69.39-10.38.39-14.61-2.69-19.61-1.93a19.16,19.16,0,0,0-8.65,4.07,19.16,19.16,0,0,0-8.65-4.07c-5-.76-16.92,1.93-19.61,1.93s-10.38-.39-10.38-.39v3.08l38.64-.38,38.64.38Z" style="fill:#fff;stroke:#263238;stroke-linecap:round;stroke-linejoin:round"></path><rect x="284.14" y="362.81" width="32.65" height="2.84" style="fill:#fff;stroke:#263238;stroke-linecap:round;stroke-linejoin:round"></rect><rect x="91.92" y="365.59" width="336.11" height="7.56" transform="translate(519.94 738.74) rotate(180)" style="fill:#fff;stroke:#263238;stroke-linecap:round;stroke-linejoin:round"></rect><rect x="63.94" y="365.59" width="243.44" height="7.56" transform="translate(371.33 738.74) rotate(180)" style="fill:#263238;stroke:#263238;stroke-linecap:round;stroke-linejoin:round"></rect></g></svg>